<?xml version="1.0" standalone="no"?>
<!DOCTYPE svg PUBLIC "-//W3C//DTD SVG 20010904//EN"
 "http://www.w3.org/TR/2001/REC-SVG-20010904/DTD/svg10.dtd">
<svg version="1.0" xmlns="http://www.w3.org/2000/svg"
 width="1000.000000pt" height="1000.000000pt" viewBox="0 0 1000.000000 1000.000000"
 preserveAspectRatio="xMidYMid meet">
<metadata>
Created by potrace 1.11, written by Peter Selinger 2001-2013
</metadata>
<g transform="translate(0.000000,1000.000000) scale(0.100000,-0.100000)"
fill="#000000" stroke="none">
<path d="M1052 5375 c-281 -59 -507 -121 -592 -163 l-35 -17 -3 -86 -3 -87 43
-6 c24 -3 135 -15 248 -26 113 -12 211 -23 218 -25 9 -4 12 -440 12 -2137 l0
-2133 -125 -39 c-68 -21 -168 -58 -222 -82 l-98 -42 -3 -86 -3 -86 746 0 745
0 0 85 0 84 -42 25 c-61 35 -182 82 -293 113 l-95 27 0 668 c0 367 3 668 8
668 9 0 204 -59 208 -63 1 -1 119 -177 262 -392 382 -574 693 -986 850 -1127
l97 -88 418 0 418 0 -3 86 -3 87 -187 81 -188 81 -112 130 c-125 145 -344 417
-584 725 -178 228 -523 683 -544 716 -13 21 -4 32 131 175 218 232 566 633
728 839 46 58 86 108 90 112 3 4 58 21 121 37 113 30 230 67 343 111 l57 23 0
88 0 89 -655 0 -655 0 0 -84 c0 -84 0 -85 33 -109 50 -38 141 -87 220 -118 40
-15 71 -33 69 -40 -4 -17 -162 -224 -360 -474 -183 -230 -253 -313 -465 -557
l-128 -148 -85 0 -84 0 0 1615 0 1615 -97 -1 c-80 0 -155 -13 -401 -64z"/>
<path d="M4735 3790 c-261 -53 -417 -96 -612 -172 l-103 -40 0 -88 0 -87 28
-6 c15 -3 114 -15 220 -28 l192 -22 0 -1327 0 -1327 -152 -50 c-84 -28 -183
-65 -220 -82 l-68 -30 0 -86 0 -85 725 0 725 0 0 85 0 86 -90 44 c-50 24 -140
60 -200 80 l-110 37 0 993 0 994 26 73 c40 112 120 259 190 347 189 239 443
341 711 285 239 -49 373 -221 427 -545 31 -188 36 -364 36 -1255 l0 -891 -98
-31 c-53 -17 -143 -54 -200 -81 l-102 -50 0 -86 0 -85 725 0 726 0 -3 86 -3
86 -90 39 c-49 21 -147 57 -218 81 l-127 42 2 980 3 981 38 110 c76 217 200
419 309 503 125 96 277 139 458 129 168 -10 262 -44 356 -130 127 -116 189
-290 214 -601 6 -75 10 -517 10 -1052 l0 -922 -67 -22 c-80 -26 -216 -81 -284
-116 l-49 -24 0 -85 0 -85 725 0 725 0 0 85 0 84 -42 25 c-65 37 -220 95 -314
118 l-84 21 0 921 c0 507 -5 989 -10 1071 -31 468 -118 742 -291 914 -155 155
-341 215 -664 216 -228 0 -342 -23 -504 -103 -232 -113 -442 -360 -552 -649
l-23 -62 -32 127 c-49 197 -100 305 -202 430 -85 104 -255 199 -418 234 -136
30 -401 32 -519 4 -118 -27 -224 -71 -312 -128 -95 -61 -252 -218 -315 -313
-51 -77 -123 -216 -133 -258 -20 -78 -25 -9 -25 342 l0 381 -97 -1 c-65 0
-145 -10 -238 -29z"/>
</g>
</svg>
